<?xml version="1.0" encoding="utf-8"?>
<!-- Generator: Adobe Illustrator 19.0.0, SVG Export Plug-In . SVG Version: 6.00 Build 0)  -->
<svg version="1.1" id="Layer_1" xmlns="http://www.w3.org/2000/svg" xmlns:xlink="http://www.w3.org/1999/xlink" x="0px" y="0px"
	 viewBox="-599 385 24 24" style="enable-background:new -599 385 24 24;" xml:space="preserve">
<g>
	<g>
		<g>
			<g>
				<path d="M-587,395.9c-0.1,0-0.2,0-0.2-0.1l-8.3-4.7c-0.1-0.1-0.2-0.3-0.2-0.5c0-0.2,0.1-0.3,0.2-0.4l8.2-4.7
					c0.2-0.1,0.3-0.1,0.5,0l8.2,4.7c0.2,0.1,0.2,0.3,0.2,0.4s0,0.4-0.1,0.5l-8.2,4.7C-586.8,395.8-586.9,395.9-587,395.9z
					 M-594.2,390.6l7.2,4.2l7.2-4.2l-7.2-4.1L-594.2,390.6z"/>
			</g>
			<g>
				<path d="M-588.6,408.6c-0.1,0-0.2,0-0.2-0.1l-8.2-4.7c-0.2-0.1-0.3-0.3-0.3-0.4v-9.5c0-0.2,0.1-0.3,0.2-0.4
					c0.2-0.1,0.3-0.1,0.5,0l8.2,4.7c0.2,0.1,0.2,0.3,0.2,0.4v9.5c0,0.2-0.1,0.3-0.2,0.4C-588.5,408.6-588.5,408.6-588.6,408.6z
					 M-596.3,403.1l7.2,4.2V399l-7.2-4.2V403.1z"/>
			</g>
			<g>
				<path d="M-585.4,408.6c-0.1,0-0.2,0-0.2-0.1c-0.2-0.1-0.2-0.3-0.2-0.4v-9.5c0-0.2,0.1-0.3,0.2-0.4l8.2-4.7
					c0.2-0.1,0.3-0.1,0.5,0c0.2,0.1,0.2,0.3,0.2,0.4v9.5c0,0.2-0.1,0.3-0.3,0.4l-8.2,4.7C-585.2,408.6-585.3,408.6-585.4,408.6z
					 M-584.9,398.9v8.3l7.2-4.2v-8.2L-584.9,398.9z"/>
			</g>
		</g>
	</g>
</g>
</svg>
