<?xml version="1.0" encoding="utf-8"?>
<!-- Generator: Adobe Illustrator 19.0.0, SVG Export Plug-In . SVG Version: 6.00 Build 0)  -->
<svg version="1.1" id="Layer_1" xmlns="http://www.w3.org/2000/svg" xmlns:xlink="http://www.w3.org/1999/xlink" x="0px" y="0px"
	 viewBox="-595 381 32 32" style="enable-background:new -595 381 32 32;" xml:space="preserve">
<g transform="translate(432 192)">
	<path d="M-1018,189l-2,22h-6.1v5c0,2.8,2.2,5,5,5h18c2.8,0,5-2.2,5-4.9l2.1-27.1H-1018z M-1021,219c-1.7,0-3-1.3-3-3v-3h16v3
		c0,1.1,0.4,2.2,1,3H-1021z M-1000,216c0,1.7-1.4,3-3,3c-1.7,0-3-1.3-3-3v-5h-11.9l1.8-20h18L-1000,216z M-1002.9,201h-10.1l0.2-2
		h10.1L-1002.9,201L-1002.9,201z M-1002.6,197h-10.1l0.2-2h10L-1002.6,197z M-1011.2,205h-2.2l0.2-2h2.1L-1011.2,205z M-1009.2,203
		h4.1l-0.2,2h-4.2L-1009.2,203z"/>
</g>
</svg>
