<?xml version="1.0" encoding="utf-8"?>
<!-- Generator: Adobe Illustrator 19.0.0, SVG Export Plug-In . SVG Version: 6.00 Build 0)  -->
<svg version="1.1" id="Layer_21_copy" xmlns="http://www.w3.org/2000/svg" xmlns:xlink="http://www.w3.org/1999/xlink" x="0px"
	 y="0px" viewBox="-561 347 100 100" style="enable-background:new -561 347 100 100;" xml:space="preserve">
<style type="text/css">
	.st0{fill:none;stroke:#000000;stroke-width:2;stroke-miterlimit:10;}
</style>
<g>
	<path d="M-493.4,385v7.8H-526V385H-493.4 M-493.4,397.6v7.5H-526v-7.5H-493.4 M-489.3,381H-530v28.1h4.7v4.1h7.5v-4.1h16.3v4.1h7.5
		v-4.1h4.7V381L-489.3,381z M-528.6,407.8v-25.4h38v25.4H-528.6L-528.6,407.8z M-500.2,411.8v-2.7h4.7v2.7H-500.2L-500.2,411.8z
		 M-523.9,411.8v-2.7h4.7v2.7H-523.9L-523.9,411.8z M-491.4,383H-528v11.8h36.6V383L-491.4,383z M-491.4,395.6H-528v11.5h36.6V395.6
		L-491.4,395.6z"/>
</g>
<circle class="st0" cx="-509.7" cy="389.1" r="1.8"/>
<circle class="st0" cx="-509.7" cy="401.3" r="1.8"/>
</svg>
