<?xml version="1.0" encoding="utf-8"?>
<!-- Generator: Adobe Illustrator 19.0.0, SVG Export Plug-In . SVG Version: 6.00 Build 0)  -->
<svg version="1.1" id="Layer_21_copy" xmlns="http://www.w3.org/2000/svg" xmlns:xlink="http://www.w3.org/1999/xlink" x="0px"
	 y="0px" viewBox="-561 347 100 100" style="enable-background:new -561 347 100 100;" xml:space="preserve">
<style type="text/css">
	.st0{fill:none;}
</style>
<path class="st0" d="M-536,373h48v48h-48V373z"/>
<path d="M-521,416c-6.5-3.1-11.2-9.5-11.9-17h-3c1,12.3,11.3,22,23.9,22c0.5,0,0.9,0,1.3-0.1l-7.6-7.6L-521,416z M-519.2,402.9
	c-0.4,0-0.7-0.1-1-0.2c-0.3-0.1-0.6-0.3-0.8-0.5c-0.2-0.2-0.4-0.4-0.5-0.7c-0.1-0.3-0.2-0.6-0.2-0.9h-2.6c0,0.7,0.1,1.3,0.4,1.9
	c0.3,0.5,0.6,1,1.1,1.4c0.5,0.4,1,0.6,1.6,0.8c0.6,0.2,1.3,0.3,1.9,0.3c0.7,0,1.4-0.1,2.1-0.3c0.6-0.2,1.2-0.5,1.7-0.9
	c0.5-0.4,0.8-0.9,1.1-1.4c0.3-0.6,0.4-1.2,0.4-1.9c0-0.4,0-0.8-0.1-1.1c-0.1-0.4-0.3-0.7-0.5-1c-0.2-0.3-0.5-0.6-0.8-0.9
	c-0.3-0.3-0.7-0.5-1.2-0.6c0.4-0.2,0.8-0.4,1-0.7s0.5-0.5,0.8-0.8c0.2-0.3,0.3-0.6,0.5-0.9c0.1-0.3,0.1-0.6,0.1-1
	c0-0.7-0.1-1.4-0.4-1.9c-0.2-0.6-0.6-1-1-1.4s-1-0.6-1.6-0.8c-0.6-0.2-1.3-0.3-2.1-0.3c-0.7,0-1.4,0.1-2,0.3
	c-0.6,0.2-1.1,0.5-1.6,0.9c-0.4,0.4-0.8,0.8-1,1.4c-0.3,0.5-0.4,1.1-0.4,1.7h2.6c0-0.3,0.1-0.6,0.2-0.9c0.1-0.3,0.3-0.5,0.5-0.7
	c0.2-0.2,0.5-0.3,0.8-0.4c0.3-0.1,0.6-0.2,1-0.2c0.8,0,1.4,0.2,1.8,0.6c0.4,0.4,0.6,1,0.6,1.7c0,0.4,0,0.7-0.2,1
	c-0.1,0.3-0.3,0.5-0.5,0.8c-0.2,0.2-0.5,0.4-0.8,0.5c-0.3,0.1-0.7,0.2-1.2,0.2h-1.5v2h1.5c0.4,0,0.8,0.1,1.2,0.1
	c0.4,0.1,0.7,0.3,0.9,0.5c0.3,0.2,0.4,0.5,0.6,0.8c0.1,0.3,0.2,0.7,0.2,1.1c0,0.8-0.2,1.4-0.7,1.9
	C-517.8,402.7-518.4,402.9-519.2,402.9z M-502.1,391.1c-0.6-0.7-1.4-1.2-2.3-1.5c-0.9-0.4-1.9-0.5-2.9-0.5h-4.7v16h4.6
	c1.1,0,2.1-0.2,3-0.5c0.9-0.4,1.7-0.9,2.3-1.5c0.6-0.7,1.1-1.5,1.5-2.4c0.4-0.9,0.5-2,0.5-3.1v-0.8c0-1.2-0.2-2.2-0.5-3.1
	S-501.4,391.7-502.1,391.1z M-502.9,397.4c0,0.8-0.1,1.6-0.3,2.3c-0.2,0.7-0.5,1.2-0.9,1.7s-0.9,0.8-1.4,1.1c-0.6,0.2-1.2,0.4-2,0.4
	h-1.8v-11.5h2c1.4,0,2.5,0.5,3.3,1.4c0.8,0.9,1.1,2.2,1.1,4L-502.9,397.4L-502.9,397.4z M-512,373c-0.5,0-0.9,0-1.3,0.1l7.6,7.6
	l2.7-2.7c6.5,3.1,11.2,9.4,11.9,17h3C-489.1,382.7-499.4,373-512,373z"/>
</svg>
