<?xml version="1.0" encoding="utf-8"?>
<!-- Generator: Adobe Illustrator 19.0.0, SVG Export Plug-In . SVG Version: 6.00 Build 0)  -->
<svg version="1.1" id="Layer_1" xmlns="http://www.w3.org/2000/svg" xmlns:xlink="http://www.w3.org/1999/xlink" x="0px" y="0px"
	 viewBox="-595 381 32 32" style="enable-background:new -595 381 32 32;" xml:space="preserve">
<g transform="translate(48 144)">
	<path d="M-627,241c6.6,0,12,5.4,12,12s-5.4,12-12,12s-12-5.4-12-12S-633.6,241-627,241z M-627,239c-7.7,0-14,6.3-14,14
		c0,7.7,6.3,14,14,14s14-6.3,14-14C-613,245.3-619.3,239-627,239L-627,239z M-631,246c-1.1,0-2,1.3-2,3c0,1.7,0.9,3,2,3s2-1.3,2-3
		C-629,247.3-629.9,246-631,246z M-623,246c-1.1,0-2,1.3-2,3c0,1.7,0.9,3,2,3s2-1.3,2-3C-621,247.3-621.9,246-623,246z M-618,255.3
		c0.2-0.5-0.1-1.1-0.7-1.2c-0.5-0.2-1.1,0.2-1.2,0.7c-0.9,3.1-3.8,5.3-7,5.3c-3.2,0-6.1-2.2-7-5.3c-0.2-0.5-0.7-0.8-1.2-0.7
		c-0.5,0.2-0.8,0.7-0.7,1.2c1.2,4,4.8,6.7,9,6.7C-622.9,262-619.2,259.2-618,255.3z"/>
</g>
</svg>
