<?xml version="1.0" encoding="utf-8"?>
<!-- Generator: Adobe Illustrator 19.0.0, SVG Export Plug-In . SVG Version: 6.00 Build 0)  -->
<svg version="1.1" id="Layer_1" xmlns="http://www.w3.org/2000/svg" xmlns:xlink="http://www.w3.org/1999/xlink" x="0px" y="0px"
	 viewBox="-595 381 32 32" style="enable-background:new -595 381 32 32;" xml:space="preserve">
<g transform="translate(288 336)">
	<path d="M-859.1,73.2c0.8,0.8,2,0.8,2.8,0l1.5-1.5c0.8-0.8,0.8-2,0-2.8l-2.7-2.7c-1.1,0-2.6-0.8-3.9-2.1c-1.3-1.3-2.1-2.8-2.1-3.9
		c-0.8-0.5-1.9-0.5-2.6,0.2l-1.5,1.5c-0.7,0.7-0.8,1.8-0.2,2.6c1.1,0,2.6,0.8,3.9,2.1c1.3,1.3,2.1,2.8,2.1,3.9L-859.1,73.2z
		 M-859,72.3l3.4-3.4c0.1-0.1,0.3-0.1,0.4,0c0.1,0.1,0.1,0.3,0,0.4l-3.4,3.4c-0.1,0.1-0.3,0.1-0.4,0
		C-859.2,72.6-859.2,72.4-859,72.3L-859,72.3z"/>
	<path d="M-867.4,60.7l1.4-1.4l-1.6-1.6c0,0-0.2-0.1-0.5,0c-0.2,0.2-0.4,0.4-0.4,0.4l-6.1-6.1c0,0-1-1.9-1.4-2.4
		c-0.5-0.4-2.5-1.5-2.5-1.5s-0.4,0-0.6,0.2c-0.1,0.1-0.1,0.1-0.2,0.2c-0.1,0.1-0.1,0.1-0.1,0.1c0,0-0.1,0.1-0.2,0.2
		c-0.2,0.2-0.2,0.6-0.2,0.6s1.1,2,1.5,2.5c0.4,0.4,2.4,1.4,2.4,1.4l6.1,6.1c0,0-0.3,0.2-0.4,0.4c-0.1,0.2,0,0.5,0,0.5l1.6,1.6
		L-867.4,60.7L-867.4,60.7z"/>
</g>
</svg>
