<?xml version="1.0" encoding="utf-8"?>
<!-- Generator: Adobe Illustrator 19.0.0, SVG Export Plug-In . SVG Version: 6.00 Build 0)  -->
<svg version="1.1" id="Layer_1" xmlns="http://www.w3.org/2000/svg" xmlns:xlink="http://www.w3.org/1999/xlink" x="0px" y="0px"
	 viewBox="-595 381 32 32" style="enable-background:new -595 381 32 32;" xml:space="preserve">
<style type="text/css">
	.st0{fill:#B5B5B5;}
</style>
<g id="smartphone">
	<path class="st0" d="M-570,383.8c0-0.6-0.5-1.1-1.1-1.1H-586c-0.6,0-1.1,0.5-1.1,1.1v26.5c0,0.6,0.5,1.1,1.1,1.1h14.9
		c0.6,0,1.1-0.5,1.1-1.1V383.8z M-578.6,410.2c-0.7,0-1.3-0.6-1.3-1.3c0-0.7,0.6-1.3,1.3-1.3c0.7,0,1.3,0.6,1.3,1.3
		C-577.2,409.6-577.8,410.2-578.6,410.2z M-572.7,404.5h-11.7v-18.2h11.7V404.5z"/>
</g>
</svg>
