<?xml version="1.0" encoding="utf-8"?>
<!-- Generator: Adobe Illustrator 19.0.0, SVG Export Plug-In . SVG Version: 6.00 Build 0)  -->
<svg version="1.1" id="Layer_1" xmlns="http://www.w3.org/2000/svg" xmlns:xlink="http://www.w3.org/1999/xlink" x="0px" y="0px"
	 viewBox="-595 381 32 32" style="enable-background:new -595 381 32 32;" xml:space="preserve">
<g transform="translate(240 288)">
	<path d="M-817,99h-10v-2h10V99z M-811,109h-16v2h16V109z M-813,101h-14v2h14V101z M-811,105h-16v2h16V105z M-803,113v12h-32v-12
		l4-8V93h18l6,6v6L-803,113z M-807,113h1.8l-1.8-3.5V113z M-829,113h2l4,6h8l4-6h2V99.8l-4.8-4.8H-829V113z M-832.8,113h1.8v-3.5
		L-832.8,113z M-805,115h-4.9l-4,6h-10.1l-4-6h-4.9v8h28L-805,115L-805,115z"/>
</g>
</svg>
