<?xml version="1.0" encoding="utf-8"?>
<!-- Generator: Adobe Illustrator 19.0.0, SVG Export Plug-In . SVG Version: 6.00 Build 0)  -->
<svg version="1.1" id="Layer_1" xmlns="http://www.w3.org/2000/svg" xmlns:xlink="http://www.w3.org/1999/xlink" x="0px" y="0px"
	 viewBox="-233 356.9 128 128" style="enable-background:new -233 356.9 128 128;" xml:space="preserve">
<g>
	<g>
		<path d="M-148.2,400.3c-0.8-0.8-2-0.8-2.8,0l-18,18l-18-18c-0.8-0.8-2-0.8-2.8,0c-0.8,0.8-0.8,2,0,2.8l18,18l-18,18
			c-0.8,0.8-0.8,2,0,2.8c0.4,0.4,0.9,0.6,1.4,0.6c0.5,0,1-0.2,1.4-0.6l18-18l18,18c0.4,0.4,0.9,0.6,1.4,0.6c0.5,0,1-0.2,1.4-0.6
			c0.8-0.8,0.8-2,0-2.8l-18-18l18-18C-147.4,402.3-147.4,401.1-148.2,400.3z M-169,370.9c-27.6,0-50.1,22.5-50.1,50.1
			c0,27.6,22.5,50.1,50.1,50.1c27.6,0,50.1-22.5,50.1-50.1C-118.8,393.4-141.3,370.9-169,370.9z M-169,467.2L-169,467.2
			c-25.4,0-46.1-20.7-46.1-46.1c0-25.4,20.7-46.1,46.1-46.1s46.1,20.7,46.1,46.1C-122.8,446.5-143.5,467.2-169,467.2z"/>
	</g>
</g>
</svg>
