<?xml version="1.0" encoding="utf-8"?>
<!-- Generator: Adobe Illustrator 19.0.0, SVG Export Plug-In . SVG Version: 6.00 Build 0)  -->
<svg version="1.1" id="Layer_1" xmlns="http://www.w3.org/2000/svg" xmlns:xlink="http://www.w3.org/1999/xlink" x="0px" y="0px"
	 viewBox="-595 381 32 32" style="enable-background:new -595 381 32 32;" xml:space="preserve">
<style type="text/css">
	.st0{fill:#B5B5B5;}
</style>
<g id="clock">
	<g>
		<path class="st0" d="M-579,385c6.6,0,12,5.4,12,12s-5.4,12-12,12s-12-5.4-12-12S-585.6,385-579,385 M-579,381c-8.8,0-16,7.2-16,16
			s7.2,16,16,16s16-7.2,16-16S-570.2,381-579,381L-579,381z"/>
		<path class="st0" d="M-573.6,399.6l-3.4-3.4V389h-4v8c0,0.6,0.3,1.1,0.7,1.5l3.9,3.9L-573.6,399.6z"/>
	</g>
</g>
</svg>
