<?xml version="1.0" encoding="utf-8"?>
<!-- Generator: Adobe Illustrator 19.0.0, SVG Export Plug-In . SVG Version: 6.00 Build 0)  -->
<svg version="1.1" id="Слой_1" xmlns="http://www.w3.org/2000/svg" xmlns:xlink="http://www.w3.org/1999/xlink" x="0px" y="0px"
	 viewBox="-542 327 139 139" style="enable-background:new -542 327 139 139;" xml:space="preserve">
<style type="text/css">
	.st0{fill:#B5B5B5;}
</style>
<path class="st0" d="M-437.3,381.5c0-19.4-15.8-35.2-35.2-35.2s-35.2,15.8-35.2,35.2c0,0-5,21.5,33,65.2c0,0,1.3,1.3,2.2,1.3
	s2.2-1.3,2.2-1.3C-432.3,403-437.3,381.5-437.3,381.5z M-472.5,402.3c-11.5,0-20.8-9.3-20.8-20.8c0-11.5,9.3-20.8,20.8-20.8
	s20.8,9.3,20.8,20.8C-451.7,393-461,402.3-472.5,402.3z"/>
</svg>
