<?xml version="1.0" encoding="utf-8"?>
<!-- Generator: Adobe Illustrator 19.0.0, SVG Export Plug-In . SVG Version: 6.00 Build 0)  -->
<svg version="1.1" id="Layer_21_copy" xmlns="http://www.w3.org/2000/svg" xmlns:xlink="http://www.w3.org/1999/xlink" x="0px"
	 y="0px" viewBox="-561 347 100 100" style="enable-background:new -561 347 100 100;" xml:space="preserve">
<g>
	<g>
		<polygon points="-487.1,410.4 -492.8,410.4 -492.8,407.5 -489.9,407.5 -489.9,399.1 -492.4,391.7 -502.9,391.7 -502.9,407.5 
			-501.4,407.5 -501.4,410.4 -505.7,410.4 -505.7,388.9 -490.3,388.9 -487.1,398.7 		"/>
	</g>
	<g>
		<path d="M-497.1,414.7c-3.2,0-5.7-2.6-5.7-5.7c0-3.2,2.6-5.7,5.7-5.7s5.7,2.6,5.7,5.7C-491.4,412.1-494,414.7-497.1,414.7z
			 M-497.1,406.1c-1.6,0-2.9,1.3-2.9,2.9s1.3,2.9,2.9,2.9s2.9-1.3,2.9-2.9S-495.5,406.1-497.1,406.1z"/>
	</g>
	<g>
		<polygon points="-524.4,410.4 -530.1,410.4 -530.1,400.3 -527.3,400.3 -527.3,407.5 -524.4,407.5 		"/>
	</g>
	<g>
		<polygon points="-502.9,410.4 -515.8,410.4 -515.8,407.5 -505.7,407.5 -505.7,386 -533,386 -533,383.1 -502.9,383.1 		"/>
	</g>
	<g>
		<path d="M-520.1,414.7c-3.2,0-5.7-2.6-5.7-5.7c0-3.2,2.6-5.7,5.7-5.7s5.7,2.6,5.7,5.7C-514.3,412.1-516.9,414.7-520.1,414.7z
			 M-520.1,406.1c-1.6,0-2.9,1.3-2.9,2.9s1.3,2.9,2.9,2.9c1.6,0,2.9-1.3,2.9-2.9S-518.5,406.1-520.1,406.1z"/>
	</g>
	<g>
		<rect x="-531.6" y="388.9" width="12.9" height="2.9"/>
	</g>
	<g>
		<rect x="-530.1" y="394.6" width="8.6" height="2.9"/>
	</g>
</g>
</svg>
