<?xml version="1.0" encoding="utf-8"?>
<!-- Generator: Adobe Illustrator 19.0.0, SVG Export Plug-In . SVG Version: 6.00 Build 0)  -->
<svg version="1.1" id="Layer_1" xmlns="http://www.w3.org/2000/svg" xmlns:xlink="http://www.w3.org/1999/xlink" x="0px" y="0px"
	 viewBox="-595 381 32 32" style="enable-background:new -595 381 32 32;" xml:space="preserve">
<g transform="translate(672 0)">
	<path d="M-1241.8,391.8c0,0,0.1-0.1,0.1-0.1l1.4-1.4c0.8-0.8,0.9-2,0.3-2.7l-2.1-2.1c-0.7-0.7-1.9-0.5-2.7,0.3l-1.4,1.4
		c0,0-0.1,0.1-0.1,0.1L-1241.8,391.8z"/>
	<path d="M-1260.8,406.2l2.2,2.2l-5.9,1.5l1.5-5.9L-1260.8,406.2z"/>
	<path d="M-1245.7,389.3l-14.5,14.5l-0.6-0.6l14.5-14.5l-0.6-0.6l-15.3,15.3l4.5,4.5l15.3-15.3L-1245.7,389.3z"/>
	<path d="M-1238.1,409.7c-2.4,0-2.7-0.6-3.5-3c-1.5-3.9-8,1-4,2.7C-1241.5,411-1235.7,409.7-1238.1,409.7z"/>
	<path d="M-1246.2,403.1l-2.3-3.2l-2.3,2.3l2.4,2.7c1.2,1.5,0.9,1.5,2.1,0.5C-1245,404.3-1245,404.6-1246.2,403.1L-1246.2,403.1z"/>
	<path d="M-1253.3,393l-5.4-7.6c-1.2-1.5-3.2-2-4.4-1c-1.2,0.9-1.1,3,0.1,4.5l6.6,7.2L-1253.3,393z M-1259.9,386.4
		c0,0-0.2-0.9-1.9-1.9c0,0,1.8-0.3,2.7,1.2C-1259.7,386.2-1259.9,386.4-1259.9,386.4z"/>
</g>
</svg>
